<svg version="1.1" xmlns="http://www.w3.org/2000/svg" xmlns:xlink="http://www.w3.org/1999/xlink" width="32" height="32" viewBox="0,0,256,256"><g fill="#ffffff" fill-rule="nonzero" stroke="none" stroke-width="1" stroke-linecap="butt" stroke-linejoin="miter" stroke-miterlimit="10" stroke-dasharray="" stroke-dashoffset="0" font-family="none" font-weight="none" font-size="none" text-anchor="none" style="mix-blend-mode: normal"><path d="M0,256v-256h256v256z" id="bgRectangle"></path></g><g fill="none" fill-rule="nonzero" stroke="none" stroke-width="none" stroke-linecap="butt" stroke-linejoin="none" stroke-miterlimit="10" stroke-dasharray="" stroke-dashoffset="0" font-family="none" font-weight="none" font-size="none" text-anchor="none" style="mix-blend-mode: normal"><path transform="translate(0,0.00112)" d="M216,104c0,31.4 -14.55,64.68 -42,96.25c-12.3272,14.26115 -26.20251,27.10681 -41.37,38.3c-2.75557,1.93034 -6.42443,1.93034 -9.18,0c-15.19547,-11.18853 -29.0978,-24.03435 -41.45,-38.3c-27.49,-31.57 -42,-64.85 -42,-96.25c0.05511,-48.57821 39.42179,-87.94489 88,-88c48.57821,0.05511 87.94489,39.42179 88,88z" id="strokeMainSVG" fill="#ffffff" stroke="#ffffff" stroke-width="4" stroke-linejoin="round"></path><g transform="translate(0,0.00112)" fill="#fffefe" stroke="none" stroke-width="1" stroke-linejoin="miter"><path d="M128,64c-22.09139,0 -40,17.90861 -40,40c0,22.09139 17.90861,40 40,40c22.09139,0 40,-17.90861 40,-40c0,-22.09139 -17.90861,-40 -40,-40zM128,128c-13.25483,0 -24,-10.74517 -24,-24c0,-13.25483 10.74517,-24 24,-24c13.25483,0 24,10.74517 24,24c0,13.25483 -10.74517,24 -24,24zM128,16c-48.57821,0.05511 -87.94489,39.42179 -88,88c0,31.4 14.51,64.68 42,96.25c12.3522,14.26565 26.25453,27.11147 41.45,38.3c2.75557,1.93034 6.42443,1.93034 9.18,0c15.16749,-11.19319 29.0428,-24.03885 41.37,-38.3c27.45,-31.57 42,-64.85 42,-96.25c-0.05511,-48.57821 -39.42179,-87.94489 -88,-88zM128,222c-16.53,-13 -72,-60.75 -72,-118c0,-39.7645 32.2355,-72 72,-72c39.7645,0 72,32.2355 72,72c0,57.23 -55.47,105 -72,118z"></path></g></g></svg>